<svg id="Capa_1" enable-background="new 0 0 483.206 483.206" height="512" viewBox="0 0 483.206 483.206" width="512" xmlns="http://www.w3.org/2000/svg"><path d="m241.603 188.797c3.574 0 6.472-2.897 6.472-6.472v-35.279c0-3.574-2.897-6.472-6.472-6.472-3.574 0-6.472 2.897-6.472 6.472v35.279c.001 3.575 2.898 6.472 6.472 6.472z"/><path d="m141.147 272.882h-36.716c-3.574 0-6.472 2.897-6.472 6.471s2.897 6.472 6.472 6.472h36.716c3.574 0 6.472-2.897 6.472-6.472-.001-3.574-2.898-6.471-6.472-6.471z"/><path d="m378.776 272.882h-36.716c-3.574 0-6.472 2.897-6.472 6.471s2.897 6.472 6.472 6.472h36.716c3.574 0 6.472-2.897 6.472-6.472-.001-3.574-2.898-6.471-6.472-6.471z"/><path d="m166.357 215.241c2.591 2.462 6.688 2.357 9.15-.234s2.357-6.688-.234-9.15l-26.142-24.836c-2.591-2.462-6.688-2.357-9.15.234s-2.357 6.688.234 9.15z"/><path d="m312.393 217.02c1.659.002 3.255-.635 4.457-1.779l26.141-24.837c2.591-2.462 2.696-6.558.234-9.15-2.462-2.591-6.558-2.696-9.15-.234l-26.138 24.836c-2.591 2.462-2.696 6.558-.235 9.149 1.222 1.286 2.919 2.015 4.694 2.014z"/><path d="m23.729 218.809v200.14c-.153 21.038 16.778 38.218 37.816 38.371.185.001.37.001.554 0h359.007c21.038.153 38.218-16.778 38.371-37.816.001-.185.001-.37 0-.554v-200.14c14.022-6.148 23.729-19.92 23.729-35.528v-47.022c0-21.41-17.529-39.188-38.937-39.188h-116.379v-32.816c0-21.41-17.905-38.371-39.313-38.371h-100.663c-21.411 0-39.07 16.961-39.07 38.371v32.816h-109.907c-21.408 0-38.937 17.779-38.937 39.188v47.026c0 15.605 9.707 29.378 23.729 35.523zm397.378 225.568h-359.007c-13.883.161-25.267-10.963-25.428-24.846-.002-.194-.002-.388 0-.581v-195.846l129.393 40.409c-1.777 6.046-2.756 12.298-2.912 18.597-.099 28.404 16.972 54.27 41.779 67.033v51.731c.217 3.743 3.25 6.704 6.997 6.831h59.349c3.747-.127 6.78-3.088 6.998-6.831v-51.521c24.807-13.071 41.891-38.925 41.891-66.98-.116-6.391-1.064-12.74-2.818-18.887l129.187-40.382v195.845c.161 13.883-10.963 25.267-24.846 25.428-.195.002-.389.002-.583 0zm-118.024-183.326c.013.043.019.085.032.128.027.083.068.157.097.238 2.487 6.707 3.758 13.803 3.753 20.956 0 24.309-14.777 46.671-38.04 56.971-2.284 1.066-3.702 3.402-3.594 5.92v7.433h-47.458v-7.698c.108-2.547-1.344-4.903-3.667-5.952-23.308-9.954-38.182-32.285-38.092-56.891.179-15.958 6.607-31.211 17.905-42.483 11.516-11.744 26.996-18.775 43.417-19.72 18.417-1.152 36.499 5.31 50.013 17.874 6.91 6.452 12.256 14.395 15.634 23.224zm-85.209 104.589h47.458v29.122h-47.458zm-56.086-301.384c0-14.274 11.853-25.428 26.127-25.428h100.662c14.273 0 26.37 11.154 26.37 25.428v32.816h-153.159zm-148.845 72.004c.038-14.381 11.614-26.068 25.994-26.245h405.333c14.38.177 25.956 11.864 25.994 26.245v47.026c.014 11.351-7.387 21.38-18.238 24.714l-139.003 43.32c-4.061-8.618-9.714-16.391-16.663-22.909-16.109-15-37.669-22.729-59.639-21.379-19.623 1.132-38.119 9.54-51.873 23.582-5.962 6.057-10.872 13.066-14.527 20.738l-139.139-43.359c-10.85-3.333-18.251-13.361-18.239-24.711z"/></svg>