<svg height="512pt" viewBox="0 -20 512 512" width="512pt" xmlns="http://www.w3.org/2000/svg"><path d="m492 0h-472c-11.027344 0-20 8.972656-20 20v36c0 10.335938 7.882812 18.867188 17.953125 19.894531l170.191406 213.601563v155.992187c0 9.710938 5.054688 18.34375 13.523438 23.097657 4.089843 2.292968 8.535156 3.4375 12.976562 3.4375 4.753907 0 9.496094-1.3125 13.78125-3.925782l79.027344-48.214844c7.828125-4.777343 12.691406-13.441406 12.691406-22.613281v-104.054687l173.890625-217.316406c10.074219-1.023438 17.964844-9.554688 17.964844-19.898438v-36c0-11.027344-8.972656-20-20-20zm-189.660156 283.460938c-1.421875 1.773437-2.195313 3.976562-2.195313 6.246093v107.5625c0 2.246094-1.191406 4.367188-3.105469 5.539063l-79.027343 48.214844c-2.925781 1.785156-5.558594.679687-6.554688.121093-.996093-.558593-3.3125-2.230469-3.3125-5.65625v-159.488281c0-2.265625-.765625-4.460938-2.175781-6.230469l-162.359375-203.769531h172.519531c5.519532 0 10-4.476562 10-10s-4.480468-10-10-10h-196.128906v-36h472v36h-195.871094c-5.523437 0-10 4.476562-10 10s4.476563 10 10 10h172.207032zm0 0"/><path d="m256 56c-2.628906 0-5.210938 1.070312-7.070312 2.929688-1.859376 1.859374-2.929688 4.441406-2.929688 7.070312s1.070312 5.210938 2.929688 7.070312c1.859374 1.859376 4.441406 2.929688 7.070312 2.929688s5.210938-1.070312 7.070312-2.929688c1.859376-1.859374 2.929688-4.441406 2.929688-7.070312s-1.070312-5.210938-2.929688-7.070312c-1.859374-1.859376-4.441406-2.929688-7.070312-2.929688zm0 0"/></svg>