<?xml version="1.0"?>
<svg xmlns="http://www.w3.org/2000/svg" enable-background="new 0 0 110 110" height="512px" viewBox="0 0 110 110" width="512px" class=""><g><path d="m28.6012859 45.9596062-1.1391258-1.2940026 27.9950161-24.6303844 27.665062 24.3402729-1.1391297 1.2940025-26.5259323-23.3380642z" fill="#474c5b" data-original="#474C5B" class=""/><path d="m86.2329483 41.3287506h-62.4658661c-2.9511013 0-5.3434772 2.3923759-5.3434772 5.3435135v40.727562c0 2.9511337 2.3923759 5.3435135 5.3434772 5.3435135h62.4658661c2.9511032 0 5.3434448-2.3923798 5.3434448-5.3435135v-40.727562c0-2.9511375-2.3923416-5.3435135-5.3434448-5.3435135z" fill="#fcd462" data-original="#FCD462" class="" data-old_color="#fcd462" style="fill:#FCD462"/><path d="m24.654171 48.666748h60.691658v37.363918h-60.691658z" fill="#00abee" data-original="#00ABEE" class="" data-old_color="#00abee" style="fill:#00ABEE"/><path d="m65.5359116 60.2730446-11.3029137 21.9335365h22.6058235z" fill="#474c5b" data-original="#474C5B" class=""/><path d="m48.0435524 53.3270264-14.88237 28.8795547h29.7647438z" fill="#4d5c7d" data-original="#4D5C7D" class=""/><circle cx="58.962" cy="56.651" fill="#fcd462" r="3.323" data-original="#FCD462" class="" data-old_color="#fcd462" style="fill:#FCD462"/><circle cx="55.487" cy="22.046" fill="#ebf0f3" r="4.789" data-original="#EBF0F3" class="active-path"/><circle cx="55.487" cy="22.046" fill="#4d5c7d" r="2.446" data-original="#4D5C7D" class=""/></g> </svg>
